<?xml version="1.0" encoding="UTF-8" standalone="no"?>
<svg width="135px" height="70px" viewBox="0 0 135 70" version="1.1" xmlns="http://www.w3.org/2000/svg" xmlns:xlink="http://www.w3.org/1999/xlink">
    <!-- Generator: sketchtool 3.8.3 (29802) - http://www.bohemiancoding.com/sketch -->
    <title>C1ECA5CA-833E-4CAD-A79D-3B540301D026</title>
    <desc>Created with sketchtool.</desc>
    <defs>
        <polygon id="path-1" points="0.518785714 0.875 124.673201 0.875 124.673201 0.08715 0.518785714 0.08715"></polygon>
        <polygon id="path-3" points="0.789224026 0.875 7.03779545 0.875 7.03779545 0.08715 0.789224026 0.08715 0.789224026 0.875"></polygon>
    </defs>
    <g id="Page-1" stroke="none" stroke-width="1" fill="none" fill-rule="evenodd">
        <g id="Desktop-HD" transform="translate(-428.000000, -788.000000)">
            <g id="vendes" transform="translate(428.000000, 788.000000)">
                <path d="M101.48888,16.3227375 C101.48888,20.9628625 97.7193994,24.7262375 93.069789,24.7262375 C88.4210552,24.7262375 84.6506981,20.9628625 84.6506981,16.3227375 C84.6506981,11.6826125 88.4210552,7.9209875 93.069789,7.9209875 C97.7193994,7.9209875 101.48888,11.6826125 101.48888,16.3227375" id="Fill-1" fill="#EDD045"></path>
                <path d="M33.5779188,12.0964 C33.5779188,13.457025 32.47425,14.5604 31.1119773,14.5604 C29.7479513,14.5604 28.6425292,13.457025 28.6425292,12.0964 C28.6425292,10.73665 29.7479513,9.63415 31.1119773,9.63415 C32.47425,9.63415 33.5779188,10.73665 33.5779188,12.0964" id="Fill-3" fill="#EDD045"></path>
                <path d="M41.4170357,12.0964 C41.4170357,13.457025 40.310737,14.5604 38.946711,14.5604 C37.5844383,14.5604 36.4781396,13.457025 36.4781396,12.0964 C36.4781396,10.73665 37.5844383,9.63415 38.946711,9.63415 C40.310737,9.63415 41.4170357,10.73665 41.4170357,12.0964" id="Fill-5" fill="#EDD045"></path>
                <path d="M33.5779188,19.5066 C33.5779188,20.868975 32.47425,21.9706 31.1119773,21.9706 C29.7479513,21.9706 28.6425292,20.868975 28.6425292,19.5066 C28.6425292,18.14685 29.7479513,17.04435 31.1119773,17.04435 C32.47425,17.04435 33.5779188,18.14685 33.5779188,19.5066" id="Fill-7" fill="#EDD045"></path>
                <path d="M41.4170357,19.5066 C41.4170357,20.868975 40.310737,21.9706 38.946711,21.9706 C37.5844383,21.9706 36.4781396,20.868975 36.4781396,19.5066 C36.4781396,18.14685 37.5844383,17.04435 38.946711,17.04435 C40.310737,17.04435 41.4170357,18.14685 41.4170357,19.5066" id="Fill-9" fill="#EDD045"></path>
                <polygon id="Fill-11" fill="#AFAFAF" opacity="0.4" points="27.3462662 58.541575 63.6630195 58.541575 63.6630195 53.863825 27.3462662 53.863825"></polygon>
                <polygon id="Fill-13" fill="#AFAFAF" opacity="0.4" points="27.3462662 51.525825 53.9000649 51.525825 53.9000649 47.62595 27.3462662 47.62595"></polygon>
                <path d="M112.848166,16.3227375 C112.848166,20.9628625 109.078685,24.7262375 104.429075,24.7262375 C99.7812175,24.7262375 96.0126136,20.9628625 96.0126136,16.3227375 C96.0126136,11.6826125 99.7812175,7.9209875 104.429075,7.9209875 C109.078685,7.9209875 112.848166,11.6826125 112.848166,16.3227375" id="Fill-15" fill="#AFAFAF" opacity="0.4"></path>
                <path d="M62.1015779,68.2861 L22.4825844,68.2861 C20.9143052,68.2861 19.5669351,67.018225 19.5669351,65.45285" id="Stroke-17" stroke="#484848" stroke-width="2" stroke-linecap="round" stroke-linejoin="round"></path>
                <path d="M45.3344026,36.3229625 C45.3344026,37.3703375 44.5130065,38.2715875 43.4961234,38.2715875 L30.1337532,38.2715875 C29.1168701,38.2715875 28.295474,37.3703375 28.295474,36.3229625 C28.295474,35.2755875 29.1168701,34.3725875 30.1337532,34.3725875 L43.4961234,34.3725875 C44.5130065,34.3725875 45.3344026,35.2755875 45.3344026,36.3229625 L45.3344026,36.3229625 Z" id="Stroke-19" stroke="#484848" stroke-width="2" stroke-linecap="round" stroke-linejoin="round"></path>
                <path d="M49.7723084,36.3213 C49.7723084,35.275675 50.5937045,34.372675 51.6114643,34.372675 L64.9712045,34.372675 C65.9898409,34.372675 66.811237,35.275675 66.811237,36.3213 C66.811237,37.370425 65.9898409,38.271675 64.9712045,38.271675 L51.6114643,38.271675 C50.5937045,38.271675 49.7723084,37.370425 49.7723084,36.3213 L49.7723084,36.3213 Z" id="Stroke-21" stroke="#484848" stroke-width="2" stroke-linecap="round" stroke-linejoin="round"></path>
                <path d="M88.2881591,36.3229625 C88.2881591,37.3703375 87.4641331,38.2715875 86.4490032,38.2715875 L73.0866331,38.2715875 C72.0715032,38.2715875 71.2483539,37.3703375 71.2483539,36.3229625 C71.2483539,35.2755875 72.0715032,34.3725875 73.0866331,34.3725875 L86.4490032,34.3725875 C87.4641331,34.3725875 88.2881591,35.2755875 88.2881591,36.3229625 L88.2881591,36.3229625 Z" id="Stroke-23" stroke="#484848" stroke-width="2" stroke-linecap="round" stroke-linejoin="round"></path>
                <path d="M92.7251883,36.3213 C92.7251883,35.275675 93.5483377,34.372675 94.5625909,34.372675 L107.927591,34.372675 C108.942721,34.372675 109.764994,35.275675 109.764994,36.3213 C109.764994,37.370425 108.942721,38.271675 107.927591,38.271675 L94.5625909,38.271675 C93.5483377,38.271675 92.7251883,37.370425 92.7251883,36.3213 L92.7251883,36.3213 Z" id="Stroke-25" stroke="#484848" stroke-width="2" stroke-linecap="round" stroke-linejoin="round"></path>
                <path d="M66.7877435,68 L105.840438,68" id="Stroke-27" stroke="#484848" stroke-width="2" stroke-linecap="round" stroke-linejoin="round"></path>
                <path d="M115.914594,1.59045 C117.441672,1.59045 118.338458,2.718325 118.338458,4.282825 L118.338458,65.1172 C118.338458,66.6817 117.34086,68.091325 115.815536,68.091325" id="Stroke-29" stroke="#484848" stroke-width="2" stroke-linecap="round" stroke-linejoin="round"></path>
                <path d="M22.5234351,68.1101375 C20.9981104,68.1101375 19.5341494,66.6812625 19.5341494,65.1167625 L19.5341494,4.2832625 C19.5341494,2.7187625 21.0209026,1.6302625 22.5435974,1.6302625 L96.0756429,1.6302625" id="Stroke-31" stroke="#484848" stroke-width="2" stroke-linecap="round" stroke-linejoin="round"></path>
                <g id="Group-35" transform="translate(9.642857, 68.783450)">
                    <mask id="mask-2" fill="white">
                        <use xlink:href="#path-1"></use>
                    </mask>
                    <g id="Clip-34"></g>
                    <path d="M0.518785714,0 L124.673201,0" id="Stroke-33" stroke="#AFAFAF" stroke-width="3" stroke-linecap="round" opacity="0.4" mask="url(#mask-2)"></path>
                </g>
                <g id="Group-38" transform="translate(0.000000, 68.783450)">
                    <mask id="mask-4" fill="white">
                        <use xlink:href="#path-3"></use>
                    </mask>
                    <g id="Clip-37"></g>
                    <path d="M7.03779545,0 L0.789224026,0" id="Stroke-36" stroke="#AFAFAF" stroke-width="3" stroke-linecap="round" opacity="0.407940765" mask="url(#mask-4)"></path>
                </g>
            </g>
        </g>
    </g>
</svg>