<?xml version="1.0" encoding="UTF-8" standalone="no"?>
<svg width="129px" height="73px" viewBox="0 0 129 73" version="1.1" xmlns="http://www.w3.org/2000/svg" xmlns:xlink="http://www.w3.org/1999/xlink">
    <!-- Generator: sketchtool 3.8.3 (29802) - http://www.bohemiancoding.com/sketch -->
    <title>A570CFAF-5A25-427C-88E2-B7E5D8DE89FE</title>
    <desc>Created with sketchtool.</desc>
    <defs>
        <polygon id="path-1" points="0.48710653 0.820070802 119.822454 0.820070802 119.822454 0.0816790519 0.48710653 0.0816790519 0.48710653 0.820070802"></polygon>
        <polygon id="path-3" points="0.739780717 0.820070802 6.59606992 0.820070802 6.59606992 0.0816790519 0.739780717 0.0816790519 0.739780717 0.820070802"></polygon>
        <polygon id="path-5" points="78.6050907 53.0804859 78.6050907 0.389533631 0.167709924 0.389533631 0.167709924 53.0804859 78.6050907 53.0804859"></polygon>
        <polygon id="path-7" points="0.607486264 13.2424651 2.61712938 12.9308764 5.29670832 11.2907348 6.91957505 8.58696137 7.19113394 0.0675738341 0.607486264 0.0675738341 0.607486264 13.2424651"></polygon>
        <polygon id="path-9" points="0.607486264 13.2424651 2.61712938 12.9308764 5.29670832 11.2907348 6.91957505 8.58696137 7.19113394 0.0675738341 0.607486264 0.0675738341 0.607486264 13.2424651"></polygon>
    </defs>
    <g id="Page-1" stroke="none" stroke-width="1" fill="none" fill-rule="evenodd">
        <g id="Desktop-HD" transform="translate(-1335.000000, -785.000000)">
            <g id="Group-5" transform="translate(-3.000000, 553.000000)" fill="#FFFFFF">
                <g id="Group-7-Copy">
                    <g id="FOTOS">
                        <rect id="Rectangle-2" x="0" y="0" width="1904" height="628"></rect>
                    </g>
                </g>
            </g>
            <g id="gastas" transform="translate(1335.000000, 785.000000)">
                <path d="M42.7759732,22.9296773 C42.7759732,31.8077638 35.5655147,39.0047052 26.6672748,39.0047052 L26.6672748,22.1834129 L42.7759732,22.9296773 Z" id="Fill-1" fill="#EDD045"></path>
                <path d="M42.7759732,66.3470138 C42.7759732,57.4681072 35.5655147,50.2703458 26.6672748,50.2703458 L26.6672748,67.0932783 L42.7759732,66.3470138 Z" id="Fill-3" fill="#EDD045"></path>
                <path d="M92.694532,66.3470138 C92.694532,57.4681072 99.9049905,50.2703458 108.802409,50.2703458 L108.802409,67.0932783 L92.694532,66.3470138 Z" id="Fill-5" fill="#EDD045"></path>
                <path d="M92.694532,22.9296773 C92.694532,31.8077638 99.9049905,39.0047052 108.802409,39.0047052 L108.802409,22.1834129 L92.694532,22.9296773 Z" id="Fill-7" fill="#EDD045"></path>
                <polyline id="Stroke-9" stroke="#484848" stroke-width="2" stroke-linecap="round" stroke-linejoin="round" points="21.7165863 53.3091182 21.7165863 17.7893915 114.527307 17.7893915 114.527307 71.2850702 21.7165863 71.2850702 21.7165863 61.5032656"></polyline>
                <polyline id="Stroke-11" stroke="#484848" stroke-width="2" stroke-linecap="round" stroke-linejoin="round" points="109.886155 32.6423499 109.886155 66.8926069 24.9876282 66.8926069"></polyline>
                <polyline id="Stroke-13" stroke="#484848" stroke-width="2" stroke-linecap="round" stroke-linejoin="round" points="24.9873817 59.711903 24.9873817 22.1830029 109.885908 22.1830029 109.885908 26.9836973"></polyline>
                <path d="M92.7370963,23.1955443 C92.7370963,32.0736308 99.9483765,39.2722123 108.844151,39.2722123" id="Stroke-15" stroke="#484848" stroke-width="2" stroke-linecap="round" stroke-linejoin="round"></path>
                <path d="M102.192288,51.153234 C96.593192,53.6708514 92.6942033,59.2899765 92.6942033,65.8169201" id="Stroke-17" stroke="#484848" stroke-width="1.351" stroke-linecap="round" stroke-linejoin="round"></path>
                <path d="M85.0857933,44.5382149 C85.0857933,53.4983085 77.8063116,60.7649559 68.8275446,60.7649559 C59.8487777,60.7649559 52.5676526,53.4983085 52.5676526,44.5382149 C52.5676526,35.5748411 59.8487777,28.3098338 68.8275446,28.3098338 C74.4389658,28.3098338 79.3856279,31.1480989 82.3076098,35.4649516 C84.0619492,38.0547352 85.086615,41.1767447 85.0857933,44.5382149" id="Fill-19" fill="#EDD045"></path>
                <path d="M81.7508227,44.5382149 C81.7508227,51.6613499 75.9643784,57.4371086 68.8270516,57.4371086 C61.6897248,57.4371086 55.9041022,51.6613499 55.9041022,44.5382149 C55.9041022,37.4134398 61.6897248,31.6385012 68.8270516,31.6385012 C73.2864428,31.6385012 77.2199431,33.894516 79.5437239,37.3256922 C80.9373351,39.3840699 81.7516444,41.8664243 81.7508227,44.5382149 L81.7508227,44.5382149 Z" id="Stroke-21" stroke="#484848" stroke-width="1.351" stroke-linecap="round" stroke-linejoin="round"></path>
                <g id="Group-29" transform="translate(0.000000, 71.980162)">
                    <g id="Group-25" transform="translate(9.038751, 0.000000)">
                        <mask id="mask-2" fill="white">
                            <use xlink:href="#path-1"></use>
                        </mask>
                        <g id="Clip-24"></g>
                        <path d="M0.48710653,0 L119.822454,0" id="Stroke-23" stroke="#AFAFAF" stroke-width="2" stroke-linecap="round" opacity="0.4" mask="url(#mask-2)"></path>
                    </g>
                    <g id="Group-28">
                        <mask id="mask-4" fill="white">
                            <use xlink:href="#path-3"></use>
                        </mask>
                        <g id="Clip-27"></g>
                        <path d="M6.59606992,0 L0.739780717,0" id="Stroke-26" stroke="#AFAFAF" stroke-width="2" stroke-linecap="round" opacity="0.4" mask="url(#mask-4)"></path>
                    </g>
                </g>
                <g id="Group-35" opacity="0.4" transform="translate(22.186026, 17.035418)">
                    <polygon id="Fill-30" fill="#AFAFAF" points="0.165984344 53.0807228 78.6050907 53.0807228 78.6050907 0.389533631 0.165984344 0.389533631"></polygon>
                    <g id="Group-34">
                        <mask id="mask-6" fill="white">
                            <use xlink:href="#path-5"></use>
                        </mask>
                        <g id="Clip-33"></g>
                        <path d="M78.6051728,0.389205603 L0.167709924,0.389205603 L0.167709924,53.048412 L68.3083916,53.048412 C68.3083916,53.048412 69.4185146,53.1205782 70.7981568,53.048412 L71.51797,53.048412 C74.5936106,53.048412 77.2074532,51.2204742 78.1861035,48.6725142 L78.1926771,48.6725142 L78.1926771,48.6552927 C78.334832,48.2813404 78.4408319,47.8926269 78.5082117,47.4924323 L78.5106768,47.4875119 L78.5090334,47.4817714 C78.5673744,47.1480026 78.6051728,46.8084933 78.6051728,46.4607833" id="Fill-32" fill="#AFAFAF" mask="url(#mask-6)"></path>
                    </g>
                </g>
                <polyline id="Fill-36" fill="#FFFFFF" points="97.5966578 14.7289693 24.5208178 14.7289693 24.5208178 68.0015887 90.9950824 68.0015887 94.9984276 66.6451916 96.7519453 63.6256909 97.5966578 61.4139599"></polyline>
                <polyline id="Stroke-38" stroke="#484848" stroke-width="2" stroke-linecap="round" stroke-linejoin="round" points="90.9950002 68.0015067 24.5215573 68.0015067 24.5215573 14.7288873 97.5965756 14.7288873"></polyline>
                <polyline id="Stroke-40" stroke="#484848" stroke-width="2" stroke-linecap="round" stroke-linejoin="round" points="29.2540011 63.6256909 29.2540011 19.1048671 97.5951787 19.1048671"></polyline>
                <path d="M97.2123465,63 L38.3544625,63" id="Stroke-42" stroke="#484848" stroke-width="2" stroke-linecap="round" stroke-linejoin="round"></path>
                <path d="M46.2979637,20.2644472 C46.2979637,29.1056305 39.1179083,36.2722293 30.2574668,36.2722293 L30.2574668,20.2644472 L46.2979637,20.2644472 Z" id="Fill-44" fill="#EDD045"></path>
                <path d="M30.340459,46.4650533 C39.2000788,46.4650533 46.3801342,53.631652 46.3801342,62.4728353 L30.340459,62.4728353 L30.340459,46.4650533 Z" id="Fill-46" fill="#EDD045"></path>
                <path d="M84.4069009,41.3660171 C84.4069009,48.6416852 78.4972009,54.5420946 71.2053936,54.5420946 C63.9160514,54.5420946 58.0030646,48.6416852 58.0030646,41.3660171 C58.0030646,34.0887088 63.9160514,28.1882993 71.2053936,28.1882993 C78.4972009,28.1882993 84.4069009,34.0887088 84.4069009,41.3660171" id="Fill-48" fill="#EDD045"></path>
                <g id="Group-59" opacity="0.4" transform="translate(90.387514, 53.938605)">
                    <polygon id="Fill-50" fill="#AFAFAF" points="0.607486264 14.0629021 2.61655419 13.7504552 5.29695483 12.1103136 6.91982156 9.40654013 7.2090616 0.333276774 0.607486264 0.055272772"></polygon>
                    <g id="Group-58" transform="translate(0.000000, 0.820071)">
                        <g id="Group-54">
                            <mask id="mask-8" fill="white">
                                <use xlink:href="#path-7"></use>
                            </mask>
                            <g id="Clip-53"></g>
                            <path d="M0.607486264,13.2428313 C4.25256819,13.2428313 7.2090616,10.2938567 7.2090616,6.65520259 C7.2090616,3.01572837 4.25256819,0.0675738341 0.607486264,0.0675738341" id="Fill-52" fill="#AFAFAF" mask="url(#mask-8)"></path>
                        </g>
                        <g id="Group-57">
                            <mask id="mask-10" fill="white">
                                <use xlink:href="#path-9"></use>
                            </mask>
                            <g id="Clip-56"></g>
                            <path d="M0.607486264,13.2428313 C4.25256819,13.2428313 7.2090616,10.2938567 7.2090616,6.65520259 C7.2090616,3.01572837 4.25256819,0.0675738341 0.607486264,0.0675738341" id="Fill-55" fill="#AFAFAF" mask="url(#mask-10)"></path>
                        </g>
                    </g>
                </g>
                <g id="Group-63" transform="translate(90.387514, 1.454073)">
                    <path d="M7.20914377,59.9596407 C7.20914377,56.3209865 4.25347207,53.3720119 0.607568435,53.3720119 L0.607568435,0.0993925812 C4.25347207,0.0993925812 7.20914377,3.05000733 7.20914377,6.68702133 L7.20914377,59.9596407" id="Fill-60" fill="#FFFFFF"></path>
                    <path d="M7.20914377,59.9596407 C7.20914377,56.3209865 4.25347207,53.3720119 0.607568435,53.3720119 L0.607568435,0.0993925812 C4.25347207,0.0993925812 7.20914377,3.05000733 7.20914377,6.68702133 L7.20914377,59.9596407" id="Stroke-62" stroke="#484848" stroke-width="1.351" stroke-linecap="round" stroke-linejoin="round"></path>
                </g>
                <path d="M90.9950002,68.0015067 C94.6400822,68.0015067 97.5965756,65.0525321 97.5965756,61.4138779" id="Stroke-64" stroke="#484848" stroke-width="1.351" stroke-linecap="round" stroke-linejoin="round"></path>
                <path d="M47.0289522,19.4219885 C47.0297739,25.264993 43.9056527,30.3805946 39.2342617,33.1942575" id="Stroke-66" stroke="#484848" stroke-width="2" stroke-linecap="round" stroke-linejoin="round"></path>
                <path d="M31.0057111,47.1377574 C36.9663568,47.1377574 42.1718559,50.3696564 44.956613,55.171991" id="Stroke-68" stroke="#484848" stroke-width="2" stroke-linecap="round" stroke-linejoin="round"></path>
            </g>
        </g>
    </g>
</svg>