<?xml version="1.0" encoding="UTF-8" standalone="no"?>
<svg width="137px" height="73px" viewBox="0 0 137 73" version="1.1" xmlns="http://www.w3.org/2000/svg" xmlns:xlink="http://www.w3.org/1999/xlink">
    <!-- Generator: sketchtool 3.8.3 (29802) - http://www.bohemiancoding.com/sketch -->
    <title>84E4FFF9-9646-4520-88C3-47E1B7B217AA</title>
    <desc>Created with sketchtool.</desc>
    <defs>
        <polygon id="path-1" points="0.776041611 0.924050633 127.498941 0.924050633 127.498941 0.092035443 0.776041611 0.092035443"></polygon>
        <polygon id="path-3" points="0.833927517 0.924050633 6.96983356 0.924050633 6.96983356 0.092035443 0.833927517 0.092035443 0.833927517 0.924050633"></polygon>
    </defs>
    <g id="Page-1" stroke="none" stroke-width="1" fill="none" fill-rule="evenodd">
        <g id="Desktop-HD" transform="translate(-733.000000, -785.000000)">
            <g id="Group-5" transform="translate(-3.000000, 553.000000)" fill="#FFFFFF">
                <g id="Group-7-Copy">
                    <g id="FOTOS">
                        <rect id="Rectangle-2" x="0" y="0" width="1904" height="628"></rect>
                    </g>
                </g>
            </g>
            <g id="recibes" transform="translate(733.000000, 785.000000)">
                <g id="Group-3" opacity="0.4" transform="translate(9.261745, 71.294657)">
                    <mask id="mask-2" fill="white">
                        <use xlink:href="#path-1"></use>
                    </mask>
                    <g id="Clip-2"></g>
                    <path d="M0.776041611,0 L127.498941,0" id="Stroke-1" stroke="#AFAFAF" stroke-width="2" stroke-linecap="round" mask="url(#mask-2)"></path>
                </g>
                <g id="Group-6" opacity="0.4" transform="translate(0.000000, 71.294657)">
                    <mask id="mask-4" fill="white">
                        <use xlink:href="#path-3"></use>
                    </mask>
                    <g id="Clip-5"></g>
                    <path d="M6.96983356,0 L0.833927517,0" id="Stroke-4" stroke="#AFAFAF" stroke-width="2" stroke-linecap="round" mask="url(#mask-4)"></path>
                </g>
                <path d="M123.506851,60.9171063 L82.998757,60.8856886 L83.0015356,65.1113722 L55.4385826,65.1196886 L55.4367302,60.8810684 L69.7016698,60.8764481 L14.6822738,60.8339418 C14.6822738,60.8339418 12.3297906,71.6573468 22.0055356,71.6628911 L116.169697,71.7349671 C125.845442,71.7432835 123.506851,60.9171063 123.506851,60.9171063" id="Fill-7" fill="#EDD045"></path>
                <polygon id="Fill-9" fill="#EDD045" points="83.2797584 60.8693329 69.9854497 60.8767253 83.2797584 60.8859658"></polygon>
                <polygon id="Fill-11" fill="#EDD045" points="39.1799597 38.2921886 101.30404 38.2921886 101.30404 32.5529101 39.1799597 32.5529101"></polygon>
                <polygon id="Fill-13" fill="#EDD045" points="39.1799597 46.7084418 101.30404 46.7084418 101.30404 41.3535684 39.1799597 41.3535684"></polygon>
                <polygon id="Fill-14" fill="#EDD045" points="39.1799597 55.5081759 101.30404 55.5081759 101.30404 49.7698215 39.1799597 49.7698215"></polygon>
                <path d="M77.6612134,21.330962 C77.6612134,25.4660886 74.3019785,28.8176203 70.1573477,28.8176203 C66.0154953,28.8176203 62.6553342,25.4660886 62.6553342,21.330962 C62.6553342,17.1976835 66.0154953,13.8443038 70.1573477,13.8443038 C74.3019785,13.8443038 77.6612134,17.1976835 77.6612134,21.330962" id="Fill-15" fill="#EDD045"></path>
                <polygon id="Fill-16" fill="#AFAFAF" opacity="0.4" points="107.82153 60.4823405 114.724309 60.4823405 114.724309 57.0384038 107.82153 57.0384038"></polygon>
                <polygon id="Fill-17" fill="#AFAFAF" opacity="0.4" points="31.5112349 60.4823405 107.82153 60.4823405 107.82153 57.0384038 31.5112349 57.0384038"></polygon>
                <path d="M16.6349275,68.4340734 C17.0350349,69.8414025 18.7299342,71.4132127 22.9625517,71.4132127 L115.216015,71.2672127 C118.905894,71.2672127 121.080552,69.5835924 121.440834,68.1466937" id="Fill-18" fill="#AFAFAF" opacity="0.4"></path>
                <path d="M72.4786188,20.0513367 C72.4786188,21.3200582 71.4459342,22.3503747 70.1742966,22.3503747 C68.9008067,22.3503747 67.8690483,21.3200582 67.8690483,20.0513367 C67.8690483,18.7826152 68.9008067,17.7532228 70.1742966,17.7532228 C71.4459342,17.7532228 72.4786188,18.7826152 72.4786188,20.0513367 L72.4786188,20.0513367 Z" id="Stroke-19" stroke="#484848" stroke-width="2" stroke-linecap="round" stroke-linejoin="round"></path>
                <path d="M66.0568953,26.2598481 C66.9488013,24.9421519 68.4593919,24.0763165 70.1737409,24.0763165 C71.8325195,24.0763165 73.3032846,24.888557 74.2035262,26.1369494" id="Stroke-20" stroke="#484848" stroke-width="2" stroke-linecap="round" stroke-linejoin="round"></path>
                <path d="M108.393165,60.6491316 L31.479004,60.5872203" id="Stroke-21" stroke="#484848" stroke-width="2" stroke-linecap="round" stroke-linejoin="round"></path>
                <path d="M122.363581,60.5959063 C122.363581,60.5959063 124.695689,71.1956911 115.21444,71.1956911 L24.610494,71.1956911" id="Stroke-22" stroke="#484848" stroke-width="2" stroke-linecap="round" stroke-linejoin="round"></path>
                <polyline id="Stroke-23" stroke="#484848" stroke-width="2" stroke-linecap="round" stroke-linejoin="round" points="25.7592282 40.9697177 25.7592282 1.62364177 114.379309 1.69109747 114.344114 60.9911228"></polyline>
                <path d="M108.35334,60.6491316 L108.393165,8.09467595 C108.394091,7.52268861 107.930078,7.06158734 107.361407,7.06066329 L44.5880779,7.00984051 L36.8897154,7.0061443 L32.439447,7.0024481 C31.8698497,7.0024481 31.4086148,7.46354937 31.4049101,8.03461266" id="Stroke-24" stroke="#484848" stroke-width="2" stroke-linecap="round" stroke-linejoin="round"></path>
            </g>
        </g>
    </g>
</svg>